<?xml version="1.0" standalone="no"?>
<!DOCTYPE svg PUBLIC "-//W3C//DTD SVG 20010904//EN"
 "http://www.w3.org/TR/2001/REC-SVG-20010904/DTD/svg10.dtd">
<svg version="1.0" xmlns="http://www.w3.org/2000/svg"
 width="225.000000pt" height="225.000000pt" viewBox="0 0 225.000000 225.000000"
 preserveAspectRatio="xMidYMid meet">

<g transform="translate(0.000000,225.000000) scale(0.100000,-0.100000)"
fill="#ffff" stroke="none">
<path d="M965 2160 c-141 -22 -299 -85 -422 -166 -324 -216 -500 -588 -461
-976 23 -236 118 -443 279 -613 179 -188 407 -300 660 -324 100 -10 243 -2
330 18 499 113 845 572 816 1081 -22 381 -241 712 -582 880 -140 70 -266 100
-430 105 -71 2 -157 0 -190 -5z m390 -78 c563 -148 880 -710 708 -1257 -139
-440 -578 -732 -1032 -686 -474 49 -841 415 -891 889 -30 281 69 564 270 775
142 150 321 247 536 292 99 21 305 14 409 -13z"/>
<path d="M1349 1487 c-95 -40 -148 -90 -200 -187 -21 -40 -24 -58 -24 -155 0
-107 1 -112 36 -175 43 -78 113 -139 196 -170 83 -31 205 -26 283 12 71 35
143 107 178 178 24 49 27 66 27 155 0 91 -3 105 -29 158 -35 69 -118 150 -183
179 -34 15 -74 22 -138 25 -77 3 -98 0 -146 -20z m206 -128 c26 -7 56 -28 85
-58 93 -95 93 -217 0 -312 -138 -143 -381 -45 -380 153 1 156 141 259 295 217z"/>
<path d="M720 1415 l-41 -90 18 -40 c11 -22 68 -145 129 -272 l109 -233 92 0
92 0 -63 133 c-35 72 -115 236 -179 362 l-115 230 -42 -90z"/>
<path d="M478 965 c-49 -96 -88 -177 -88 -180 0 -3 53 -5 119 -5 l118 0 22 56
c11 31 21 64 21 74 0 9 -24 65 -52 124 l-53 107 -87 -176z"/>
</g>
</svg>