 <svg  version="1.0" xmlns="http://www.w3.org/2000/svg"  width="300.000000pt" height="300.000000pt" viewBox="0 0 300.000000 300.000000"  preserveAspectRatio="xMidYMid meet">  <g transform="translate(0.000000,300.000000) scale(0.100000,-0.100000)" fill="#ffffff" stroke="none"> <path d="M1290 2795 c-280 -49 -527 -178 -726 -378 -147 -149 -244 -305 -310 -499 -164 -481 -41 -1004 320 -1362 221 -218 503 -348 815 -375 641 -57 1234 367 1390 994 111 447 -18 913 -343 1242 -201 202 -452 332 -732 378 -107 18 -311 17 -414 0z m390 -40 c47 -8 117 -21 155 -30 39 -9 75 -17 82 -17 7 -1 10 -5 8 -9 -3 -4 18 -12 45 -19 28 -7 53 -16 56 -21 3 -5 14 -9 25 -9 11 0 18 -4 15 -9 -3 -5 6 -12 20 -15 15 -4 41 -17 58 -30 17 -13 50 -34 74 -46 23 -13 42 -27 42 -32 0 -4 5 -8 11 -8 12 0 10 2 133 -118 52 -52 98 -102 101 -112 3 -10 12 -21 20 -23 7 -3 21 -22 30 -41 10 -20 21 -36 26 -36 5 0 9 -5 9 -11 0 -7 13 -33 28 -58 15 -25 38 -71 51 -101 12 -30 26 -64 31 -75 15 -37 24 -60 26 -75 2 -8 13 -60 25 -115 18 -79 23 -131 23 -245 0 -150 -5 -193 -30 -294 -8 -32 -13 -61 -10 -64 3 -3 1 -10 -4 -17 -5 -6 -11 -20 -13 -31 -1 -10 -15 -45 -30 -76 -15 -31 -27 -64 -27 -72 0 -8 -5 -18 -10 -21 -12 -7 -53 -85 -45 -85 3 0 -4 -10 -15 -23 -36 -38 -120 -157 -120 -169 0 -6 -2 -9 -5 -6 -7 7 -111 -95 -107 -104 2 -5 -3 -8 -10 -8 -7 0 -35 -21 -63 -45 -27 -25 -54 -45 -59 -45 -5 0 -17 -6 -25 -14 -9 -7 -37 -25 -63 -38 -26 -14 -45 -28 -43 -32 3 -3 2 -4 -2 -1 -3 3 -16 -1 -27 -8 -12 -8 -39 -20 -61 -27 -22 -7 -43 -17 -46 -23 -4 -5 -17 -11 -30 -13 -13 -2 -60 -12 -104 -23 -44 -12 -100 -25 -125 -31 -48 -11 -311 -15 -370 -6 -19 3 -80 17 -135 31 -55 14 -107 26 -115 27 -8 0 -22 6 -30 13 -8 7 -32 18 -53 25 -22 7 -66 27 -99 46 -33 19 -63 34 -67 34 -5 0 -16 9 -26 20 -10 11 -20 18 -22 16 -4 -4 -13 2 -66 47 -12 11 -42 35 -66 55 -25 21 -54 48 -67 62 -81 90 -94 106 -94 113 0 5 -5 5 -10 2 -6 -4 -9 -3 -8 2 3 7 -39 82 -52 93 -3 3 -19 31 -35 62 -17 32 -33 58 -37 58 -5 0 -8 7 -8 15 0 8 -11 38 -25 66 -22 46 -57 177 -83 311 -17 87 -7 323 17 428 12 52 24 104 25 115 2 11 12 40 23 65 11 25 28 65 38 90 11 25 41 80 67 123 26 43 48 82 48 86 0 4 11 18 25 31 14 13 25 27 25 30 0 4 43 49 96 101 122 121 121 119 134 119 6 0 13 6 16 14 3 7 23 21 45 31 21 10 39 22 39 27 0 4 6 8 14 8 7 0 19 6 25 14 7 8 26 18 42 21 16 4 27 10 24 15 -3 4 28 18 69 31 41 13 73 26 71 29 -2 3 4 6 13 7 9 1 46 9 82 18 180 46 356 56 510 30z"/> <path d="M1340 2646 c-47 -7 -97 -18 -111 -24 -15 -6 -29 -9 -31 -6 -6 5 -74 -18 -133 -45 -22 -10 -59 -26 -82 -36 -24 -10 -43 -21 -43 -25 0 -4 -20 -15 -45 -24 -25 -10 -43 -21 -41 -25 3 -4 -8 -12 -24 -19 -16 -7 -48 -31 -71 -53 -23 -21 -43 -39 -44 -39 -5 0 -76 -72 -100 -101 -48 -56 -103 -136 -115 -166 -7 -18 -16 -33 -20 -33 -9 0 -54 -107 -50 -119 1 -2 -3 -7 -9 -10 -5 -4 -24 -56 -41 -116 -28 -97 -33 -129 -37 -270 -3 -88 0 -185 5 -215 17 -91 51 -219 67 -250 9 -17 15 -32 15 -35 -2 -10 93 -184 109 -203 9 -9 28 -33 42 -52 43 -57 135 -150 149 -150 7 0 10 -3 7 -6 -7 -7 30 -44 43 -44 4 0 18 -10 31 -22 31 -29 80 -62 96 -64 7 -1 19 -9 28 -17 8 -8 36 -23 62 -33 27 -10 50 -21 53 -24 7 -8 87 -37 130 -46 43 -10 41 -9 60 -17 86 -36 485 -33 525 4 5 5 19 9 32 9 27 0 146 39 153 51 3 4 29 16 59 28 30 11 57 25 61 31 4 6 13 12 21 14 21 4 89 47 89 56 0 5 9 11 20 15 24 8 174 154 215 210 17 22 32 42 35 45 26 25 110 181 110 203 0 8 6 20 14 26 8 6 16 22 19 34 3 12 17 65 32 117 32 116 45 348 26 470 -14 91 -57 234 -81 275 -10 17 -18 34 -18 38 0 14 -24 67 -32 67 -3 0 -17 23 -30 50 -13 28 -27 50 -31 50 -4 0 -10 8 -13 18 -17 49 -204 234 -279 275 -17 9 -27 17 -22 18 14 0 -85 52 -230 119 -45 20 -81 32 -110 36 -11 1 -48 9 -82 18 -84 22 -278 28 -383 12z m375 -51 c561 -107 957 -632 904 -1200 -55 -585 -535 -1025 -1119 -1025 -293 0 -567 111 -778 314 -448 432 -461 1144 -29 1589 264 273 648 394 1022 322z"/> <path d="M1643 2279 c-115 -13 -218 -76 -275 -170 -31 -50 -48 -131 -48 -231 l0 -98 -90 0 -90 0 0 -95 0 -95 90 0 90 0 0 -480 0 -480 128 0 127 0 -3 480 -3 480 121 0 120 0 0 95 0 95 -120 0 -120 0 0 63 c0 100 23 162 73 198 40 29 45 30 129 27 l88 -3 0 102 0 102 -47 6 c-27 3 -59 7 -73 9 -14 1 -57 -1 -97 -5z m175 -93 c2 -27 -1 -53 -6 -58 -5 -5 -34 -12 -63 -14 -30 -3 -58 -9 -63 -15 -6 -5 -18 -9 -28 -9 -10 0 -38 -20 -62 -44 -36 -35 -46 -54 -56 -102 -15 -72 -9 -159 13 -181 11 -12 40 -18 99 -21 102 -5 118 -13 118 -55 0 -50 -14 -57 -107 -57 -139 0 -127 43 -133 -498 l-5 -457 -80 0 -80 0 -5 456 c-6 533 1 499 -105 499 -69 0 -75 5 -75 65 0 31 3 35 35 40 142 22 137 16 146 163 5 101 10 125 34 172 35 70 64 97 145 137 62 31 70 32 170 30 l105 -2 3 -49z"/> </g> </svg> 